<mxfile host="app.diagrams.net" modified="2023-11-02T11:43:09.389Z" agent="Mozilla/5.0 (Macintosh; Intel Mac OS X 10.15; rv:109.0) Gecko/20100101 Firefox/119.0" etag="03PxWruOOmTMjMRf3HGZ" version="22.0.8" type="github">
  <diagram name="Page-1" id="dupmiteCSw0VlSraGn7n">
    <mxGraphModel dx="1312" dy="881" grid="1" gridSize="10" guides="1" tooltips="1" connect="1" arrows="1" fold="1" page="1" pageScale="1" pageWidth="850" pageHeight="1100" math="0" shadow="0">
      <root>
        <mxCell id="0" />
        <mxCell id="1" parent="0" />
        <mxCell id="8vLML9S93yB9wI66CGz1-3" style="edgeStyle=orthogonalEdgeStyle;rounded=0;orthogonalLoop=1;jettySize=auto;html=1;" parent="1" source="8vLML9S93yB9wI66CGz1-1" target="8vLML9S93yB9wI66CGz1-2" edge="1">
          <mxGeometry relative="1" as="geometry" />
        </mxCell>
        <mxCell id="8vLML9S93yB9wI66CGz1-1" value="START" style="ellipse;whiteSpace=wrap;html=1;aspect=fixed;" parent="1" vertex="1">
          <mxGeometry x="385" width="80" height="80" as="geometry" />
        </mxCell>
        <mxCell id="8vLML9S93yB9wI66CGz1-5" value="" style="edgeStyle=orthogonalEdgeStyle;rounded=0;orthogonalLoop=1;jettySize=auto;html=1;" parent="1" source="8vLML9S93yB9wI66CGz1-2" target="2UiPsvEgunHZx74SgMW9-3" edge="1">
          <mxGeometry relative="1" as="geometry">
            <mxPoint x="425" y="250" as="targetPoint" />
          </mxGeometry>
        </mxCell>
        <mxCell id="8vLML9S93yB9wI66CGz1-2" value="A, B, C" style="shape=parallelogram;perimeter=parallelogramPerimeter;whiteSpace=wrap;html=1;fixedSize=1;" parent="1" vertex="1">
          <mxGeometry x="365" y="130" width="120" height="60" as="geometry" />
        </mxCell>
        <mxCell id="2UiPsvEgunHZx74SgMW9-4" style="edgeStyle=orthogonalEdgeStyle;rounded=0;orthogonalLoop=1;jettySize=auto;html=1;" parent="1" source="2UiPsvEgunHZx74SgMW9-3" target="2UiPsvEgunHZx74SgMW9-5" edge="1">
          <mxGeometry relative="1" as="geometry">
            <mxPoint x="160" y="350" as="targetPoint" />
          </mxGeometry>
        </mxCell>
        <mxCell id="2UiPsvEgunHZx74SgMW9-6" value="True" style="edgeLabel;html=1;align=center;verticalAlign=middle;resizable=0;points=[];" parent="2UiPsvEgunHZx74SgMW9-4" vertex="1" connectable="0">
          <mxGeometry x="-0.0602" y="3" relative="1" as="geometry">
            <mxPoint as="offset" />
          </mxGeometry>
        </mxCell>
        <mxCell id="2UiPsvEgunHZx74SgMW9-8" value="" style="edgeStyle=orthogonalEdgeStyle;rounded=0;orthogonalLoop=1;jettySize=auto;html=1;exitX=1;exitY=0.5;exitDx=0;exitDy=0;" parent="1" source="2UiPsvEgunHZx74SgMW9-3" target="1UahIKIq9Ut_yr-t-uE0-4" edge="1">
          <mxGeometry relative="1" as="geometry">
            <mxPoint x="730" y="350" as="targetPoint" />
          </mxGeometry>
        </mxCell>
        <mxCell id="2UiPsvEgunHZx74SgMW9-9" value="False" style="edgeLabel;html=1;align=center;verticalAlign=middle;resizable=0;points=[];" parent="2UiPsvEgunHZx74SgMW9-8" vertex="1" connectable="0">
          <mxGeometry x="-0.5326" y="-2" relative="1" as="geometry">
            <mxPoint as="offset" />
          </mxGeometry>
        </mxCell>
        <mxCell id="2UiPsvEgunHZx74SgMW9-3" value="(A + B &amp;gt; 0) || (A + C &amp;gt; 0) || (B + C &amp;gt; 0)" style="rhombus;whiteSpace=wrap;html=1;" parent="1" vertex="1">
          <mxGeometry x="303" y="250" width="245" height="200" as="geometry" />
        </mxCell>
        <mxCell id="1UahIKIq9Ut_yr-t-uE0-15" style="edgeStyle=orthogonalEdgeStyle;rounded=0;orthogonalLoop=1;jettySize=auto;html=1;" edge="1" parent="1" source="2UiPsvEgunHZx74SgMW9-5">
          <mxGeometry relative="1" as="geometry">
            <mxPoint x="140" y="520" as="targetPoint" />
          </mxGeometry>
        </mxCell>
        <mxCell id="2UiPsvEgunHZx74SgMW9-5" value="You can make a positive sum" style="shape=document;whiteSpace=wrap;html=1;boundedLbl=1;" parent="1" vertex="1">
          <mxGeometry x="80" y="310" width="120" height="80" as="geometry" />
        </mxCell>
        <mxCell id="2UiPsvEgunHZx74SgMW9-7" value="(A + B &amp;lt; 0) || (A + C &amp;lt; 0) || (B + C &amp;lt; 0)" style="rhombus;whiteSpace=wrap;html=1;" parent="1" vertex="1">
          <mxGeometry x="303" y="620" width="245" height="200" as="geometry" />
        </mxCell>
        <mxCell id="2UiPsvEgunHZx74SgMW9-10" style="edgeStyle=orthogonalEdgeStyle;rounded=0;orthogonalLoop=1;jettySize=auto;html=1;exitX=0;exitY=0.5;exitDx=0;exitDy=0;" parent="1" source="2UiPsvEgunHZx74SgMW9-7" target="2UiPsvEgunHZx74SgMW9-12" edge="1">
          <mxGeometry relative="1" as="geometry">
            <mxPoint x="144" y="720" as="targetPoint" />
            <mxPoint x="287" y="720" as="sourcePoint" />
          </mxGeometry>
        </mxCell>
        <mxCell id="2UiPsvEgunHZx74SgMW9-11" value="True" style="edgeLabel;html=1;align=center;verticalAlign=middle;resizable=0;points=[];" parent="2UiPsvEgunHZx74SgMW9-10" vertex="1" connectable="0">
          <mxGeometry x="-0.0602" y="3" relative="1" as="geometry">
            <mxPoint as="offset" />
          </mxGeometry>
        </mxCell>
        <mxCell id="1UahIKIq9Ut_yr-t-uE0-7" style="edgeStyle=orthogonalEdgeStyle;rounded=0;orthogonalLoop=1;jettySize=auto;html=1;" edge="1" parent="1" source="2UiPsvEgunHZx74SgMW9-12">
          <mxGeometry relative="1" as="geometry">
            <mxPoint x="140" y="880" as="targetPoint" />
          </mxGeometry>
        </mxCell>
        <mxCell id="2UiPsvEgunHZx74SgMW9-12" value="You can make a negative sum" style="shape=document;whiteSpace=wrap;html=1;boundedLbl=1;" parent="1" vertex="1">
          <mxGeometry x="80" y="680" width="120" height="80" as="geometry" />
        </mxCell>
        <mxCell id="2UiPsvEgunHZx74SgMW9-19" style="edgeStyle=orthogonalEdgeStyle;rounded=0;orthogonalLoop=1;jettySize=auto;html=1;" parent="1" source="2UiPsvEgunHZx74SgMW9-13" target="2UiPsvEgunHZx74SgMW9-20" edge="1">
          <mxGeometry relative="1" as="geometry">
            <mxPoint x="430.5" y="1170" as="targetPoint" />
          </mxGeometry>
        </mxCell>
        <mxCell id="2UiPsvEgunHZx74SgMW9-21" value="False" style="edgeLabel;html=1;align=center;verticalAlign=middle;resizable=0;points=[];" parent="2UiPsvEgunHZx74SgMW9-19" vertex="1" connectable="0">
          <mxGeometry x="-0.3873" y="1" relative="1" as="geometry">
            <mxPoint as="offset" />
          </mxGeometry>
        </mxCell>
        <mxCell id="2UiPsvEgunHZx74SgMW9-13" value="(A + B == 0) || (A + C == 0) || (B + C == 0)" style="rhombus;whiteSpace=wrap;html=1;" parent="1" vertex="1">
          <mxGeometry x="300" y="931" width="250.5" height="150" as="geometry" />
        </mxCell>
        <mxCell id="2UiPsvEgunHZx74SgMW9-16" style="edgeStyle=orthogonalEdgeStyle;rounded=0;orthogonalLoop=1;jettySize=auto;html=1;exitX=0;exitY=0.5;exitDx=0;exitDy=0;" parent="1" source="2UiPsvEgunHZx74SgMW9-13" target="2UiPsvEgunHZx74SgMW9-18" edge="1">
          <mxGeometry relative="1" as="geometry">
            <mxPoint x="114" y="1006" as="targetPoint" />
            <mxPoint x="278" y="1006" as="sourcePoint" />
          </mxGeometry>
        </mxCell>
        <mxCell id="2UiPsvEgunHZx74SgMW9-17" value="True" style="edgeLabel;html=1;align=center;verticalAlign=middle;resizable=0;points=[];" parent="2UiPsvEgunHZx74SgMW9-16" vertex="1" connectable="0">
          <mxGeometry x="-0.0602" y="3" relative="1" as="geometry">
            <mxPoint as="offset" />
          </mxGeometry>
        </mxCell>
        <mxCell id="1UahIKIq9Ut_yr-t-uE0-11" style="edgeStyle=orthogonalEdgeStyle;rounded=0;orthogonalLoop=1;jettySize=auto;html=1;" edge="1" parent="1" source="2UiPsvEgunHZx74SgMW9-18">
          <mxGeometry relative="1" as="geometry">
            <mxPoint x="140" y="1160" as="targetPoint" />
          </mxGeometry>
        </mxCell>
        <mxCell id="2UiPsvEgunHZx74SgMW9-18" value="You can make a 0 sum" style="shape=document;whiteSpace=wrap;html=1;boundedLbl=1;" parent="1" vertex="1">
          <mxGeometry x="80" y="966" width="120" height="80" as="geometry" />
        </mxCell>
        <mxCell id="1UahIKIq9Ut_yr-t-uE0-10" style="edgeStyle=orthogonalEdgeStyle;rounded=0;orthogonalLoop=1;jettySize=auto;html=1;" edge="1" parent="1" source="2UiPsvEgunHZx74SgMW9-20">
          <mxGeometry relative="1" as="geometry">
            <mxPoint x="720" y="1160" as="targetPoint" />
          </mxGeometry>
        </mxCell>
        <mxCell id="2UiPsvEgunHZx74SgMW9-20" value="cannot zero sum" style="shape=document;whiteSpace=wrap;html=1;boundedLbl=1;" parent="1" vertex="1">
          <mxGeometry x="660" y="966" width="120" height="80" as="geometry" />
        </mxCell>
        <mxCell id="2UiPsvEgunHZx74SgMW9-29" value="END" style="ellipse;whiteSpace=wrap;html=1;aspect=fixed;" parent="1" vertex="1">
          <mxGeometry x="400" y="1210" width="80" height="80" as="geometry" />
        </mxCell>
        <mxCell id="1UahIKIq9Ut_yr-t-uE0-1" style="edgeStyle=orthogonalEdgeStyle;rounded=0;orthogonalLoop=1;jettySize=auto;html=1;exitX=1;exitY=0.5;exitDx=0;exitDy=0;" edge="1" parent="1" target="1UahIKIq9Ut_yr-t-uE0-3" source="2UiPsvEgunHZx74SgMW9-7">
          <mxGeometry relative="1" as="geometry">
            <mxPoint x="472.5" y="874" as="targetPoint" />
            <mxPoint x="598" y="710" as="sourcePoint" />
          </mxGeometry>
        </mxCell>
        <mxCell id="1UahIKIq9Ut_yr-t-uE0-2" value="False" style="edgeLabel;html=1;align=center;verticalAlign=middle;resizable=0;points=[];" vertex="1" connectable="0" parent="1UahIKIq9Ut_yr-t-uE0-1">
          <mxGeometry x="-0.3873" y="1" relative="1" as="geometry">
            <mxPoint as="offset" />
          </mxGeometry>
        </mxCell>
        <mxCell id="1UahIKIq9Ut_yr-t-uE0-9" style="edgeStyle=orthogonalEdgeStyle;rounded=0;orthogonalLoop=1;jettySize=auto;html=1;" edge="1" parent="1" source="1UahIKIq9Ut_yr-t-uE0-3">
          <mxGeometry relative="1" as="geometry">
            <mxPoint x="720" y="880" as="targetPoint" />
          </mxGeometry>
        </mxCell>
        <mxCell id="1UahIKIq9Ut_yr-t-uE0-3" value="Cannot negative sum" style="shape=document;whiteSpace=wrap;html=1;boundedLbl=1;" vertex="1" parent="1">
          <mxGeometry x="660" y="680" width="120" height="80" as="geometry" />
        </mxCell>
        <mxCell id="1UahIKIq9Ut_yr-t-uE0-16" style="edgeStyle=orthogonalEdgeStyle;rounded=0;orthogonalLoop=1;jettySize=auto;html=1;" edge="1" parent="1" source="1UahIKIq9Ut_yr-t-uE0-4">
          <mxGeometry relative="1" as="geometry">
            <mxPoint x="720" y="520" as="targetPoint" />
          </mxGeometry>
        </mxCell>
        <mxCell id="1UahIKIq9Ut_yr-t-uE0-4" value="Cannot Positive sum" style="shape=document;whiteSpace=wrap;html=1;boundedLbl=1;" vertex="1" parent="1">
          <mxGeometry x="660" y="310" width="120" height="80" as="geometry" />
        </mxCell>
        <mxCell id="1UahIKIq9Ut_yr-t-uE0-12" value="" style="endArrow=none;html=1;rounded=0;" edge="1" parent="1">
          <mxGeometry width="50" height="50" relative="1" as="geometry">
            <mxPoint x="140" y="1160" as="sourcePoint" />
            <mxPoint x="720" y="1160" as="targetPoint" />
          </mxGeometry>
        </mxCell>
        <mxCell id="1UahIKIq9Ut_yr-t-uE0-14" value="" style="endArrow=classic;html=1;rounded=0;entryX=0.5;entryY=0;entryDx=0;entryDy=0;" edge="1" parent="1" target="2UiPsvEgunHZx74SgMW9-29">
          <mxGeometry width="50" height="50" relative="1" as="geometry">
            <mxPoint x="440" y="1160" as="sourcePoint" />
            <mxPoint x="490" y="990" as="targetPoint" />
          </mxGeometry>
        </mxCell>
        <mxCell id="1UahIKIq9Ut_yr-t-uE0-17" value="" style="endArrow=none;html=1;rounded=0;" edge="1" parent="1">
          <mxGeometry width="50" height="50" relative="1" as="geometry">
            <mxPoint x="140" y="520" as="sourcePoint" />
            <mxPoint x="720" y="520" as="targetPoint" />
          </mxGeometry>
        </mxCell>
        <mxCell id="1UahIKIq9Ut_yr-t-uE0-18" value="" style="endArrow=classic;html=1;rounded=0;entryX=0.5;entryY=0;entryDx=0;entryDy=0;" edge="1" parent="1" target="2UiPsvEgunHZx74SgMW9-7">
          <mxGeometry width="50" height="50" relative="1" as="geometry">
            <mxPoint x="426" y="520" as="sourcePoint" />
            <mxPoint x="490" y="780" as="targetPoint" />
          </mxGeometry>
        </mxCell>
        <mxCell id="1UahIKIq9Ut_yr-t-uE0-19" value="" style="endArrow=none;html=1;rounded=0;" edge="1" parent="1">
          <mxGeometry width="50" height="50" relative="1" as="geometry">
            <mxPoint x="140" y="880" as="sourcePoint" />
            <mxPoint x="720" y="880" as="targetPoint" />
          </mxGeometry>
        </mxCell>
        <mxCell id="1UahIKIq9Ut_yr-t-uE0-20" value="" style="endArrow=classic;html=1;rounded=0;entryX=0.5;entryY=0;entryDx=0;entryDy=0;" edge="1" parent="1" target="2UiPsvEgunHZx74SgMW9-13">
          <mxGeometry width="50" height="50" relative="1" as="geometry">
            <mxPoint x="425" y="880" as="sourcePoint" />
            <mxPoint x="490" y="890" as="targetPoint" />
          </mxGeometry>
        </mxCell>
      </root>
    </mxGraphModel>
  </diagram>
</mxfile>
